<svg xmlns="http://www.w3.org/2000/svg" width="1100" height="620" viewBox="0 0 1100 620">
<rect width="100%" height="100%" fill="white"/>
<text x="90" y="36" font-size="28" font-weight="700" fill="#111827">24/25 vs 25/26 公司 Site Value 对比</text>
<text x="90" y="60" font-size="15" fill="#6b7280">公司全称：Harvest Agriculture；SY Trust, SY Pty Ltd。</text>
<line x1="90" y1="500.00" x2="1060" y2="500.00" stroke="#e5e7eb" stroke-width="1"/>
<text x="78" y="505.00" font-size="12" fill="#6b7280" text-anchor="end">0</text>
<line x1="90" y1="440.00" x2="1060" y2="440.00" stroke="#e5e7eb" stroke-width="1"/>
<text x="78" y="445.00" font-size="12" fill="#6b7280" text-anchor="end">10</text>
<line x1="90" y1="380.00" x2="1060" y2="380.00" stroke="#e5e7eb" stroke-width="1"/>
<text x="78" y="385.00" font-size="12" fill="#6b7280" text-anchor="end">20</text>
<line x1="90" y1="320.00" x2="1060" y2="320.00" stroke="#e5e7eb" stroke-width="1"/>
<text x="78" y="325.00" font-size="12" fill="#6b7280" text-anchor="end">30</text>
<line x1="90" y1="260.00" x2="1060" y2="260.00" stroke="#e5e7eb" stroke-width="1"/>
<text x="78" y="265.00" font-size="12" fill="#6b7280" text-anchor="end">40</text>
<line x1="90" y1="200.00" x2="1060" y2="200.00" stroke="#e5e7eb" stroke-width="1"/>
<text x="78" y="205.00" font-size="12" fill="#6b7280" text-anchor="end">50</text>
<line x1="90" y1="140.00" x2="1060" y2="140.00" stroke="#e5e7eb" stroke-width="1"/>
<text x="78" y="145.00" font-size="12" fill="#6b7280" text-anchor="end">60</text>
<line x1="90" y1="80.00" x2="1060" y2="80.00" stroke="#e5e7eb" stroke-width="1"/>
<text x="78" y="85.00" font-size="12" fill="#6b7280" text-anchor="end">70</text>
<line x1="90" y1="80" x2="90" y2="500" stroke="#9ca3af" stroke-width="1.5"/>
<line x1="90" y1="500" x2="1060" y2="500" stroke="#9ca3af" stroke-width="1.5"/>
<rect x="182.15" y="102.20" width="127.80" height="397.80" fill="#2563eb" rx="4"/>
<text x="246.05" y="94.20" font-size="12" fill="#374151" text-anchor="middle">66.3</text>
<rect x="332.50" y="146.00" width="127.80" height="354.00" fill="#16a34a" rx="4"/>
<text x="396.40" y="138.00" font-size="12" fill="#374151" text-anchor="middle">59.0</text>
<text x="332.50" y="530" font-size="13" fill="#374151" text-anchor="middle">Harvest</text>
<rect x="667.15" y="446.00" width="127.80" height="54.00" fill="#2563eb" rx="4"/>
<text x="731.05" y="438.00" font-size="12" fill="#374151" text-anchor="middle">9.0</text>
<rect x="817.50" y="449.30" width="127.80" height="50.70" fill="#16a34a" rx="4"/>
<text x="881.40" y="441.30" font-size="12" fill="#374151" text-anchor="middle">8.4</text>
<text x="817.50" y="530" font-size="13" fill="#374151" text-anchor="middle">SY Trust</text>
<rect x="90" y="564" width="16" height="16" rx="3" fill="#2563eb"/>
<text x="114" y="577" font-size="13" fill="#374151">24/25</text>
<rect x="350" y="564" width="16" height="16" rx="3" fill="#16a34a"/>
<text x="374" y="577" font-size="13" fill="#374151">25/26</text>
<text x="90" y="602" font-size="12" fill="#6b7280">单位：A$ million（百万澳元）</text>
</svg>